<svg xmlns="http://www.w3.org/2000/svg" fill="none" viewBox="0 0 16 16"><path fill="#323232" d="M13.746 4.35a19.27 19.27 0 0 0-1.659-.816c-1.155-.501-1.357-.454-1.491-.423-.35.111-.681.278-.979.494a4.999 4.999 0 0 0-1.539-.348l-.072-.002H7.98c-.02 0-.044 0-.072.002a4.999 4.999 0 0 0-1.54.348 3.453 3.453 0 0 0-.978-.494c-.134-.03-.337-.078-1.491.423-.583.254-1.235.574-1.659.816-.752.428-2.317 1.318-2.05 2.927.232 1.405.707 2.11.97 2.404l.038.044a.863.863 0 0 0 .66.374.848.848 0 0 0 .382-.097c.055.373.196.727.412 1.036.905 1.233 2.7 1.858 5.334 1.858H8c2.633 0 4.428-.625 5.334-1.858a2.43 2.43 0 0 0 .412-1.036.848.848 0 0 0 .382.097.866.866 0 0 0 .66-.374l.038-.044c.262-.295.738-1 .97-2.404.267-1.61-1.299-2.5-2.051-2.927Z"/><path fill="#EE6A5C" d="M5.287 3.559c-.27-.062-2.003.725-2.82 1.19-.818.466-2.031 1.2-1.825 2.453.206 1.254.612 1.895.86 2.174.25.28.332.445.923-.072.085-.076.165-.156.24-.24a15.015 15.015 0 0 0 1.657-2.535c.237-.438.502-1.007.72-1.49l.093-.206c.194-.431.335-.754.359-.778.045-.045.367.044.537.205.097-.05.195-.097.294-.14a5.968 5.968 0 0 0-1.038-.561Zm8.231 1.19c-.819-.466-2.55-1.252-2.82-1.19a5.98 5.98 0 0 0-1.039.562 4.856 4.856 0 0 1 .294.14c.172-.162.492-.25.538-.205.023.023.164.346.358.777l.097.214c.217.48.48 1.047.716 1.483.466.898 1.021 1.747 1.658 2.534.075.085.155.165.24.24.59.518.673.352.922.073.25-.28.653-.922.86-2.174.208-1.252-1.005-1.988-1.824-2.454Z"/><path fill="#EEEADC" d="M13.32 9.064a15.013 15.013 0 0 1-1.658-2.534 25.467 25.467 0 0 1-.716-1.483l-.097-.214a5.71 5.71 0 0 0-1.19-.712 4.665 4.665 0 0 0-1.605-.404l-.062-.002c-.017 0-.038 0-.062.002a4.667 4.667 0 0 0-1.605.404 5.7 5.7 0 0 0-1.19.713l-.093.205a25.545 25.545 0 0 1-.72 1.49 15.025 15.025 0 0 1-1.657 2.535 2.552 2.552 0 0 0 .358 1.703c.418.571 1.492 1.67 4.962 1.67H8c3.47 0 4.544-1.1 4.963-1.67a2.553 2.553 0 0 0 .358-1.703Z"/><path fill="#EE6A5C" d="M7.17 8.377c.541-1.085.399-2.253-.319-2.61-.717-.358-1.738.232-2.28 1.317-.54 1.084-.398 2.253.319 2.61.717.357 1.738-.233 2.28-1.317Z"/><path fill="#323232" d="M8.919 8.986c0 .267-.58.649-.905.649-.298 0-.906-.382-.906-.649 0-.266.406-.4.906-.4s.905.134.905.4Zm-2.52-.957c.057-.222-.023-.433-.178-.473-.155-.04-.327.107-.384.328-.058.222.022.434.177.473.155.04.328-.106.385-.328Zm3.586.329c.155-.04.235-.252.178-.474-.058-.221-.23-.368-.385-.328-.155.04-.235.251-.178.473.058.221.23.368.385.329Zm-1.523 2.264a.612.612 0 0 1-.461-.629c-.025.392-.151.567-.451.629a1.46 1.46 0 0 1-.833-.19c.311.657 1.285.69 1.285.69h.007s.975-.034 1.286-.69a1.432 1.432 0 0 1-.833.19Z"/></svg>